<svg xmlns="http://www.w3.org/2000/svg" viewBox="0 0 320 280" role="img" aria-labelledby="title desc">
  <title id="title">Start je programma</title>
  <desc id="desc">Een vinger drukt op de startknop van een vaatwasser.</desc>
  <g stroke="#182D20" stroke-width="7" stroke-linecap="round" stroke-linejoin="round">
    <path fill="#FDF6EE" d="M47 53h226v173H47z"/>
    <path fill="#F3C653" d="M47 53h226v57H47z"/>
    <circle cx="91" cy="82" r="12" fill="#F0A1B8"/>
    <circle cx="132" cy="82" r="12" fill="#C7DDE8"/>
    <path fill="#26523F" d="M178 68h66v28h-66z"/>
    <path d="M74 140h172M74 174h172"/>
    <path fill="#F6CBB7" d="M310 202c-25-23-49-43-76-59l-36-22c-12-7-28-3-35 9-7 13-3 29 10 36l18 11-37 4c-17 2-29 17-27 34 2 16 17 28 33 26l58-7c18-2 35 2 50 13Z"/>
    <circle cx="91" cy="82" r="26"/>
    <path d="M91 69v13l9 8"/>
  </g>
  <path fill="#E8622A" d="M66 29 56 11M88 25V5M109 29l11-18"/>
</svg>
